<svg version="1" xmlns="http://www.w3.org/2000/svg" width="682.667" height="682.667" viewBox="0 0 512.000000 512.000000"><path d="M216 181c-109 3.2-193.9 19.1-212 39.8-4 4.5-4 4.5-4 13.1C0 262.2 6.9 298 17.6 325 52.7 413.6 132.4 475.3 226 486.6c13.7 1.6 43.2 1.8 56.8.4 81.6-8.8 153.1-55.8 195.1-128 20.3-35.1 32-76.1 33.7-118.5l.7-15-4.1-4.6c-8.4-9.4-29.7-17.8-63.2-24.9-5.2-1.1-12.4-2.6-16-3.5-14.6-3.4-38.4-7.5-51.9-9-7.9-.8-14.6-1.7-15-1.9-1.4-.8-122.3-1.3-146.1-.6zm116.1 24c13.1.5 27.9 1.8 35 2.9 6.8 1.1 17.6 2.7 23.9 3.6 20.6 2.9 51.2 10.7 62.3 15.8 42.7 19.8-18 41-136.3 47.8-26.3 1.4-95.6 1.5-121.5 0-78.2-4.5-132.7-15.1-147-28.5-4.6-4.4-4.7-8-.3-12.5 17.2-17.6 103.7-30.2 205.7-30.1 19.4.1 35.6-.2 35.9-.5.3-.3 4.9-.3 10.1 0 5.3.3 19.8 1 32.2 1.5z"/></svg>